<svg xmlns="http://www.w3.org/2000/svg" width="32" height="32" viewBox="0 0 24 24" fill="#1DA1F2">
  <path d="M22.25 12c0-1.1-.9-2-2-2-.2 0-.5-.1-.7-.2-.2-.1-.4-.4-.5-.6-.1-.2-.1-.5-.1-.7 0-1.1-.9-2-2-2-.2 0-.5-.1-.7-.2-.2-.1-.4-.4-.5-.6-.1-.2-.1-.5-.1-.7 0-1.1-.9-2-2-2s-2 .9-2 2c0 .2 0 .5-.1.7-.1.2-.3.5-.5.6-.2.1-.5.2-.7.2-1.1 0-2 .9-2 2 0 .2 0 .5-.1.7-.1.2-.3.5-.5.6-.2.1-.5.2-.7.2-1.1 0-2 .9-2 2s.9 2 2 2c.2 0 .5.1.7.2.2.1.4.4.5.6.1.2.1.5.1.7 0 1.1.9 2 2 2 .2 0 .5.1.7.2.2.1.4.4.5.6.1.2.1.5.1.7 0 1.1.9 2 2 2s2-.9 2-2c0-.2 0-.5.1-.7.1-.2.3-.5.5-.6.2-.1.5-.2.7-.2 1.1 0 2-.9 2-2 0-.2 0-.5.1-.7.1-.2.3-.5.5-.6.2-.1.5-.2.7-.2 1.1 0 2-.9 2-2zm-12.1 2.9-2.1-2.1 1.2-1.2 1 1 4.2-4.2 1.2 1.2-5.4 5.3z"/>
</svg>

